<svg xmlns="http://www.w3.org/2000/svg" version="1.1" xmlns:xlink="http://www.w3.org/1999/xlink" xmlns:svgjs="http://svgjs.dev/svgjs" width="2000" height="1500" viewBox="0 0 2000 1500"><rect width="2000" height="1500" fill="#000000"></rect><g transform="matrix(0.4444444444444444,0,0,0.4444444444444444,555.5565340925066,250)"><svg viewBox="0 0 320 360" data-background-color="#ffffff" preserveAspectRatio="xMidYMid meet" height="2250" width="2000" xmlns="http://www.w3.org/2000/svg" xmlns:xlink="http://www.w3.org/1999/xlink"><g id="tight-bounds" transform="matrix(1,0,0,1,0.00010353528136874957,0)"><svg viewBox="0 0 320 360" height="360" width="320"><g><svg></svg></g><g><svg viewBox="0 0 320 360" height="360" width="320"><g><path xmlns="http://www.w3.org/2000/svg" d="M307.925 179.999l6.575-11.387c11.322-19.607 4.604-44.679-15.003-56.001l-11.387-6.575v-13.151c0-22.639-18.354-40.994-40.994-40.994h-13.151l-6.575-11.387c-11.322-19.607-36.393-26.325-56.001-15.003l-11.39 6.572-11.387-6.576c-19.607-11.318-44.679-4.6-56.001 15.007l-6.575 11.387h-13.151c-22.639 0-40.994 18.354-40.994 40.994v13.151l-11.387 6.575c-19.607 11.322-26.325 36.393-15.003 56.001l6.572 11.387-6.576 11.387c-11.318 19.607-4.6 44.679 15.007 56l11.387 6.576v13.15c0 22.639 18.354 40.994 40.994 40.994h13.151l6.575 11.387c11.322 19.607 36.393 26.325 56.001 15.003l11.387-6.571 11.387 6.575c19.607 11.322 44.679 4.604 56-15.003l6.576-11.387h13.15c22.639 0 40.994-18.354 40.994-40.994v-13.151l11.387-6.575c19.607-11.322 26.325-36.393 15.003-56.001zM297.702 115.716c8.655 4.996 14.842 13.062 17.428 22.713 2.586 9.65 1.261 19.734-3.735 28.384l-5.538 9.596-17.747-30.74v-35.494zM251.155 271.155l-57.791 33.365h-66.731l-57.791-33.365-33.365-57.791v-66.731l33.365-57.791 57.791-33.365h66.731l57.791 33.365 33.365 57.791v66.731zM284.517 220.539v31.351l-27.151 15.676zM247.566 277.366l-15.676 27.151h-31.351zM187.15 308.106l-27.151 15.676-27.151-15.676zM119.459 304.517h-31.352l-15.676-27.151zM62.632 267.566l-27.151-15.676v-31.351zM31.891 207.15l-15.675-27.151 15.675-27.151zM35.481 139.459v-31.352l27.151-15.676zM72.431 82.632l15.676-27.151h31.352zM132.848 51.891l27.151-15.675 27.151 15.675zM200.539 55.481h31.351l15.676 27.151zM257.366 92.431l27.151 15.676v31.352zM288.106 152.848l15.676 27.151-15.676 27.151zM247.112 55.481c9.992 0 19.384 3.889 26.452 10.956 7.063 7.063 10.956 16.46 10.957 26.452v11.079l-30.741-17.747-17.747-30.74zM173.18 28.606c8.655-4.996 18.735-6.322 28.385-3.735 9.65 2.586 17.716 8.777 22.712 17.428l5.538 9.596h-35.494l-30.741-17.747zM95.716 42.295c4.996-8.655 13.062-14.842 22.713-17.428 9.65-2.586 19.734-1.261 28.384 3.736l9.596 5.537-30.74 17.747h-35.494zM35.481 92.885c0-9.992 3.889-19.384 10.956-26.452 7.063-7.063 16.46-10.956 26.452-10.956h11.079l-17.747 30.74-30.74 17.747zM8.606 166.817c-4.996-8.655-6.322-18.735-3.735-28.385 2.586-9.65 8.777-17.716 17.428-22.712l9.596-5.538v35.495l-17.747 30.74zM22.295 244.281c-8.655-4.996-14.842-13.062-17.428-22.712-2.586-9.65-1.261-19.734 3.736-28.385l5.537-9.596 17.747 30.74v35.495zM72.885 304.517c-9.992 0-19.384-3.889-26.452-10.957-7.063-7.063-10.956-16.46-10.956-26.451v-11.08l30.74 17.747 17.747 30.741zM146.817 331.391c-8.655 4.996-18.735 6.322-28.385 3.735-9.65-2.586-17.716-8.777-22.712-17.428l-5.538-9.596h35.495l30.74 17.747zM224.281 317.702c-4.996 8.655-13.062 14.842-22.712 17.428-9.65 2.586-19.734 1.261-28.385-3.735l-9.596-5.538 30.74-17.747h35.495zM284.517 267.112c0 9.992-3.889 19.384-10.957 26.452-7.063 7.063-16.46 10.956-26.451 10.957h-11.08l17.747-30.741 30.741-17.747zM315.13 221.565c-2.586 9.65-8.777 17.716-17.428 22.712l-9.596 5.538v-35.494l17.747-30.741 5.538 9.596c4.996 8.658 6.326 18.739 3.739 28.389z" fill="#ffffff" fill-rule="nonzero" stroke="none" stroke-width="1" stroke-linecap="butt" stroke-linejoin="miter" stroke-miterlimit="10" stroke-dasharray="" stroke-dashoffset="0" font-family="none" font-weight="none" font-size="none" text-anchor="none" style="mix-blend-mode: normal" data-fill-palette-color="tertiary"></path></g><g transform="matrix(1,0,0,1,96.75386444708681,90)"><svg viewBox="0 0 126.49227110582639 180" height="180" width="126.49227110582639"><g><svg viewBox="0 0 126.49227110582639 180" height="180" width="126.49227110582639"><g><svg viewBox="0 0 126.49227110582639 180" height="180" width="126.49227110582639"><g><svg viewBox="0 0 126.49227110582639 180" height="180" width="126.49227110582639"><g id="textblocktransform"><svg viewBox="0 0 126.49227110582639 180" height="180" width="126.49227110582639" id="textblock"><g><svg viewBox="0 0 126.49227110582639 180" height="180" width="126.49227110582639"><g transform="matrix(1,0,0,1,0,0)"><svg width="126.49227110582639" viewBox="1.5499999523162842 -36 29.55000114440918 42.04999923706055" height="180" data-palette-color="#000000"><path d="M25.25 6.05L25.25 6.05Q24.05 6.05 22.5 4.75 20.95 3.45 19.28 1.35 17.6-0.75 15.98-3.28 14.35-5.8 12.9-8.35 11.45-10.9 10.45-12.95L10.45-12.95Q9.1-8.35 7.88-3.88 6.65 0.6 5.55 4.4L5.55 4.4Q4.1 4.4 2.83 3.6 1.55 2.8 1.55 1.5L1.55 1.5Q1.55 0.95 1.8 0.2 2.05-0.55 2.25-1.25L2.25-1.25Q3.7-5.6 4.85-9.03 6-12.45 7.03-15.33 8.05-18.2 9.13-21.03 10.2-23.85 11.5-26.95 12.8-30.05 14.5-33.95L14.5-33.95Q12.55-33.55 11.08-32.9 9.6-32.25 8.68-31.75 7.75-31.25 7.4-31.25L7.4-31.25Q7.15-31.25 6.65-31.58 6.15-31.9 5.78-32.38 5.4-32.85 5.4-33.2L5.4-33.2Q6.8-33.75 8.68-34.4 10.55-35.05 12.8-35.52 15.05-36 17.45-36L17.45-36Q19.7-36 22.1-35.48 24.5-34.95 26.55-33.8 28.6-32.65 29.85-30.8 31.1-28.95 31.1-26.35L31.1-26.35Q31.1-24 30.05-22.28 29-20.55 27.25-19.35 25.5-18.15 23.4-17.4 21.3-16.65 19.15-16.23 17-15.8 15.18-15.65 13.35-15.5 12.15-15.45L12.15-15.45Q13.75-12.9 15.3-10.5 16.85-8.1 18.63-5.73 20.4-3.35 22.75-0.98 25.1 1.4 28.3 3.85L28.3 3.85Q28.1 4.85 27.08 5.45 26.05 6.05 25.25 6.05ZM11.6-16.95L11.6-16.95Q14.4-17.15 17.13-17.85 19.85-18.55 22.08-19.8 24.3-21.05 25.63-22.93 26.95-24.8 26.95-27.35L26.95-27.35Q26.95-29.95 25.65-31.43 24.35-32.9 22.3-33.55 20.25-34.2 18-34.25L18-34.25Q16.3-30.9 14.7-26.38 13.1-21.85 11.6-16.95Z" opacity="1" transform="matrix(1,0,0,1,0,0)" fill="#ffffff" class="undefined-text-0" data-fill-palette-color="primary" id="text-0"></path></svg></g></svg></g></svg></g></svg></g><g></g></svg></g></svg></g></svg></g></svg></g><defs></defs></svg><rect width="320" height="360" fill="none" stroke="none" visibility="hidden"></rect></g></svg></g></svg>